<mxfile host="app.diagrams.net" agent="Mozilla/5.0 (X11; Linux x86_64; rv:139.0) Gecko/20100101 Firefox/139.0" version="28.0.1">
  <diagram name="Page-1" id="0txw99EHFwf3PwJChmAE">
    <mxGraphModel dx="2066" dy="1168" grid="1" gridSize="10" guides="1" tooltips="1" connect="1" arrows="1" fold="1" page="1" pageScale="1" pageWidth="850" pageHeight="1100" math="0" shadow="0">
      <root>
        <mxCell id="0" />
        <mxCell id="1" parent="0" />
        <mxCell id="78gqtIRIxWraNH0mfPmI-33" value="Conference Calling" style="rounded=1;whiteSpace=wrap;html=1;verticalAlign=top;" vertex="1" parent="1">
          <mxGeometry x="367.5" y="630" width="182.5" height="70" as="geometry" />
        </mxCell>
        <mxCell id="78gqtIRIxWraNH0mfPmI-30" value="Personal Calling" style="rounded=1;whiteSpace=wrap;html=1;verticalAlign=top;" vertex="1" parent="1">
          <mxGeometry x="371.25" y="720" width="182.5" height="70" as="geometry" />
        </mxCell>
        <mxCell id="78gqtIRIxWraNH0mfPmI-12" value="Wire API Access" style="rounded=1;whiteSpace=wrap;html=1;verticalAlign=top;" vertex="1" parent="1">
          <mxGeometry x="367.5" y="410" width="182.5" height="40" as="geometry" />
        </mxCell>
        <mxCell id="78gqtIRIxWraNH0mfPmI-10" value="Wire Web Applications" style="rounded=1;whiteSpace=wrap;html=1;verticalAlign=top;" vertex="1" parent="1">
          <mxGeometry x="367.5" y="300" width="182.5" height="80" as="geometry" />
        </mxCell>
        <mxCell id="78gqtIRIxWraNH0mfPmI-1" value="Wire Client Communications" style="text;html=1;align=center;verticalAlign=middle;whiteSpace=wrap;rounded=0;fontSize=18;fontStyle=1" vertex="1" parent="1">
          <mxGeometry x="298" y="30" width="255" height="30" as="geometry" />
        </mxCell>
        <mxCell id="78gqtIRIxWraNH0mfPmI-2" value="" style="verticalLabelPosition=bottom;aspect=fixed;html=1;verticalAlign=top;strokeColor=none;shape=mxgraph.citrix.laptop_2;fillColor=#66B2FF;gradientColor=#0066CC;fontSize=14;" vertex="1" parent="1">
          <mxGeometry x="7" y="370" width="116" height="86.5" as="geometry" />
        </mxCell>
        <mxCell id="78gqtIRIxWraNH0mfPmI-3" value="" style="verticalLabelPosition=bottom;aspect=fixed;html=1;verticalAlign=top;strokeColor=none;shape=mxgraph.citrix.pda;fillColor=#66B2FF;gradientColor=#0066CC;fontSize=14;" vertex="1" parent="1">
          <mxGeometry x="50" y="280" width="30" height="61" as="geometry" />
        </mxCell>
        <mxCell id="78gqtIRIxWraNH0mfPmI-4" value="https://teams.example.com&lt;br&gt;https://account.example.com&lt;br&gt;https://webapp.example.com&lt;div&gt;&lt;br/&gt;&lt;/div&gt;" style="edgeLabel;html=1;align=center;verticalAlign=middle;resizable=0;points=[];" vertex="1" connectable="0" parent="1">
          <mxGeometry x="455" y="350" as="geometry" />
        </mxCell>
        <mxCell id="78gqtIRIxWraNH0mfPmI-5" value="" style="curved=1;endArrow=classic;html=1;rounded=0;entryX=0.07;entryY=0.4;entryDx=0;entryDy=0;entryPerimeter=0;" edge="1" parent="1" target="78gqtIRIxWraNH0mfPmI-7">
          <mxGeometry width="50" height="50" relative="1" as="geometry">
            <mxPoint x="90" y="320" as="sourcePoint" />
            <mxPoint x="206" y="363" as="targetPoint" />
            <Array as="points">
              <mxPoint x="160" y="310" />
              <mxPoint x="160" y="360" />
            </Array>
          </mxGeometry>
        </mxCell>
        <mxCell id="78gqtIRIxWraNH0mfPmI-6" value="" style="curved=1;endArrow=classic;html=1;rounded=0;exitX=0.991;exitY=0.682;exitDx=0;exitDy=0;exitPerimeter=0;entryX=0.07;entryY=0.4;entryDx=0;entryDy=0;entryPerimeter=0;" edge="1" parent="1" source="78gqtIRIxWraNH0mfPmI-2" target="78gqtIRIxWraNH0mfPmI-7">
          <mxGeometry width="50" height="50" relative="1" as="geometry">
            <mxPoint x="140" y="470" as="sourcePoint" />
            <mxPoint x="190" y="370" as="targetPoint" />
            <Array as="points">
              <mxPoint x="160" y="440" />
              <mxPoint x="160" y="360" />
            </Array>
          </mxGeometry>
        </mxCell>
        <mxCell id="78gqtIRIxWraNH0mfPmI-7" value="Internet" style="ellipse;shape=cloud;whiteSpace=wrap;html=1;align=center;" vertex="1" parent="1">
          <mxGeometry x="190" y="330" width="100" height="60" as="geometry" />
        </mxCell>
        <mxCell id="78gqtIRIxWraNH0mfPmI-8" value="" style="curved=1;endArrow=classic;html=1;rounded=0;exitX=0.875;exitY=0.5;exitDx=0;exitDy=0;exitPerimeter=0;" edge="1" parent="1" source="78gqtIRIxWraNH0mfPmI-7">
          <mxGeometry width="50" height="50" relative="1" as="geometry">
            <mxPoint x="400" y="630" as="sourcePoint" />
            <mxPoint x="367" y="340" as="targetPoint" />
            <Array as="points" />
          </mxGeometry>
        </mxCell>
        <mxCell id="78gqtIRIxWraNH0mfPmI-9" value="https://nginz-https.example.com" style="edgeLabel;html=1;align=center;verticalAlign=middle;resizable=0;points=[];" vertex="1" connectable="0" parent="1">
          <mxGeometry x="310" y="420" as="geometry">
            <mxPoint x="146" y="16" as="offset" />
          </mxGeometry>
        </mxCell>
        <mxCell id="78gqtIRIxWraNH0mfPmI-11" value="coturn1.example.com&lt;br&gt;coturn2.example.com" style="edgeLabel;html=1;align=center;verticalAlign=middle;resizable=0;points=[];" vertex="1" connectable="0" parent="1">
          <mxGeometry x="310" y="750" as="geometry">
            <mxPoint x="147" y="13" as="offset" />
          </mxGeometry>
        </mxCell>
        <mxCell id="78gqtIRIxWraNH0mfPmI-13" value="" style="curved=1;endArrow=classic;html=1;rounded=0;exitX=0.96;exitY=0.7;exitDx=0;exitDy=0;exitPerimeter=0;entryX=0;entryY=0.5;entryDx=0;entryDy=0;" edge="1" parent="1" target="78gqtIRIxWraNH0mfPmI-12">
          <mxGeometry width="50" height="50" relative="1" as="geometry">
            <mxPoint x="286" y="370" as="sourcePoint" />
            <mxPoint x="360" y="430" as="targetPoint" />
            <Array as="points">
              <mxPoint x="310" y="370" />
              <mxPoint x="320" y="388" />
              <mxPoint x="330" y="420" />
            </Array>
          </mxGeometry>
        </mxCell>
        <mxCell id="78gqtIRIxWraNH0mfPmI-14" value="" style="curved=1;endArrow=classic;html=1;rounded=0;exitX=0.8;exitY=0.8;exitDx=0;exitDy=0;exitPerimeter=0;entryX=0.017;entryY=0.4;entryDx=0;entryDy=0;entryPerimeter=0;" edge="1" parent="1" source="78gqtIRIxWraNH0mfPmI-7" target="78gqtIRIxWraNH0mfPmI-15">
          <mxGeometry width="50" height="50" relative="1" as="geometry">
            <mxPoint x="400" y="630" as="sourcePoint" />
            <mxPoint x="450" y="580" as="targetPoint" />
            <Array as="points">
              <mxPoint x="270" y="460" />
              <mxPoint x="320" y="490" />
            </Array>
          </mxGeometry>
        </mxCell>
        <mxCell id="78gqtIRIxWraNH0mfPmI-15" value="Wire Websocket Notifications" style="rounded=1;whiteSpace=wrap;html=1;verticalAlign=top;" vertex="1" parent="1">
          <mxGeometry x="367.5" y="480" width="182.5" height="50" as="geometry" />
        </mxCell>
        <mxCell id="78gqtIRIxWraNH0mfPmI-16" value="https://nginz-ssl.example.com" style="edgeLabel;html=1;align=center;verticalAlign=middle;resizable=0;points=[];" vertex="1" connectable="0" parent="1">
          <mxGeometry x="310" y="500" as="geometry">
            <mxPoint x="146" y="16" as="offset" />
          </mxGeometry>
        </mxCell>
        <mxCell id="78gqtIRIxWraNH0mfPmI-17" value="" style="shape=mxgraph.networks2.icon;aspect=fixed;fillColor=#EDEDED;strokeColor=#000000;gradientColor=#5B6163;network2IconShadow=1;network2bgFillColor=none;network2Icon=mxgraph.networks2.antenna;network2IconYOffset=0.0004;network2IconW=0.508;network2IconH=0.9997;" vertex="1" parent="1">
          <mxGeometry x="273" y="170" width="25.4" height="49.985" as="geometry" />
        </mxCell>
        <mxCell id="78gqtIRIxWraNH0mfPmI-18" value="" style="curved=1;endArrow=classic;html=1;rounded=0;entryX=1.033;entryY=0.607;entryDx=0;entryDy=0;entryPerimeter=0;exitX=0.394;exitY=0.44;exitDx=0;exitDy=0;exitPerimeter=0;" edge="1" parent="1" source="78gqtIRIxWraNH0mfPmI-17" target="78gqtIRIxWraNH0mfPmI-3">
          <mxGeometry width="50" height="50" relative="1" as="geometry">
            <mxPoint x="270" y="230" as="sourcePoint" />
            <mxPoint x="450" y="580" as="targetPoint" />
            <Array as="points">
              <mxPoint x="180" y="230" />
            </Array>
          </mxGeometry>
        </mxCell>
        <mxCell id="78gqtIRIxWraNH0mfPmI-19" value="Asset Retrieval" style="rounded=1;whiteSpace=wrap;html=1;verticalAlign=top;" vertex="1" parent="1">
          <mxGeometry x="370.5" y="550" width="182.5" height="60" as="geometry" />
        </mxCell>
        <mxCell id="78gqtIRIxWraNH0mfPmI-20" value="Amazon Hosted Notification service" style="rounded=1;whiteSpace=wrap;html=1;" vertex="1" parent="1">
          <mxGeometry x="600" y="164.99" width="120" height="60" as="geometry" />
        </mxCell>
        <mxCell id="78gqtIRIxWraNH0mfPmI-21" value="" style="curved=1;endArrow=classic;html=1;rounded=0;entryX=0.669;entryY=0.38;entryDx=0;entryDy=0;entryPerimeter=0;exitX=-0.017;exitY=0.383;exitDx=0;exitDy=0;exitPerimeter=0;" edge="1" parent="1" source="78gqtIRIxWraNH0mfPmI-20" target="78gqtIRIxWraNH0mfPmI-17">
          <mxGeometry width="50" height="50" relative="1" as="geometry">
            <mxPoint x="400" y="630" as="sourcePoint" />
            <mxPoint x="450" y="580" as="targetPoint" />
            <Array as="points" />
          </mxGeometry>
        </mxCell>
        <mxCell id="78gqtIRIxWraNH0mfPmI-22" value="&lt;div&gt;Wire Messaging&lt;/div&gt;&lt;div&gt;Load Balancer&lt;/div&gt;" style="rounded=1;whiteSpace=wrap;html=1;" vertex="1" parent="1">
          <mxGeometry x="680" y="430" width="120" height="60" as="geometry" />
        </mxCell>
        <mxCell id="78gqtIRIxWraNH0mfPmI-23" value="" style="curved=1;endArrow=classic;html=1;rounded=0;entryX=0;entryY=0;entryDx=0;entryDy=0;exitX=1;exitY=0.5;exitDx=0;exitDy=0;" edge="1" parent="1" source="78gqtIRIxWraNH0mfPmI-10" target="78gqtIRIxWraNH0mfPmI-22">
          <mxGeometry width="50" height="50" relative="1" as="geometry">
            <mxPoint x="400" y="630" as="sourcePoint" />
            <mxPoint x="450" y="580" as="targetPoint" />
            <Array as="points">
              <mxPoint x="650" y="340" />
              <mxPoint x="650" y="390" />
            </Array>
          </mxGeometry>
        </mxCell>
        <mxCell id="78gqtIRIxWraNH0mfPmI-24" value="" style="curved=1;endArrow=classic;html=1;rounded=0;entryX=0;entryY=0.25;entryDx=0;entryDy=0;exitX=1;exitY=0.5;exitDx=0;exitDy=0;" edge="1" parent="1" source="78gqtIRIxWraNH0mfPmI-12" target="78gqtIRIxWraNH0mfPmI-22">
          <mxGeometry width="50" height="50" relative="1" as="geometry">
            <mxPoint x="560" y="440" as="sourcePoint" />
            <mxPoint x="450" y="580" as="targetPoint" />
            <Array as="points">
              <mxPoint x="600" y="430" />
              <mxPoint x="640" y="430" />
            </Array>
          </mxGeometry>
        </mxCell>
        <mxCell id="78gqtIRIxWraNH0mfPmI-25" value="" style="curved=1;endArrow=classic;html=1;rounded=0;exitX=0.55;exitY=0.95;exitDx=0;exitDy=0;exitPerimeter=0;entryX=0;entryY=0.5;entryDx=0;entryDy=0;" edge="1" parent="1" source="78gqtIRIxWraNH0mfPmI-7" target="78gqtIRIxWraNH0mfPmI-19">
          <mxGeometry width="50" height="50" relative="1" as="geometry">
            <mxPoint x="400" y="630" as="sourcePoint" />
            <mxPoint x="450" y="580" as="targetPoint" />
            <Array as="points">
              <mxPoint x="260" y="490" />
              <mxPoint x="320" y="570" />
            </Array>
          </mxGeometry>
        </mxCell>
        <UserObject label="&lt;div&gt;https://assets.example.com&lt;/div&gt;" link="https://nginz-https.example.com&#xa;https://nginz-ssl.example.com&#xa;https://assets.example.com" id="78gqtIRIxWraNH0mfPmI-26">
          <mxCell style="text;whiteSpace=wrap;html=1;" vertex="1" parent="1">
            <mxGeometry x="385" y="570" width="155" height="40" as="geometry" />
          </mxCell>
        </UserObject>
        <mxCell id="78gqtIRIxWraNH0mfPmI-27" value="" style="curved=1;endArrow=classic;html=1;rounded=0;exitX=1;exitY=0.5;exitDx=0;exitDy=0;entryX=0;entryY=0.5;entryDx=0;entryDy=0;" edge="1" parent="1" source="78gqtIRIxWraNH0mfPmI-15" target="78gqtIRIxWraNH0mfPmI-22">
          <mxGeometry width="50" height="50" relative="1" as="geometry">
            <mxPoint x="400" y="630" as="sourcePoint" />
            <mxPoint x="450" y="580" as="targetPoint" />
            <Array as="points">
              <mxPoint x="590" y="510" />
              <mxPoint x="630" y="460" />
            </Array>
          </mxGeometry>
        </mxCell>
        <mxCell id="78gqtIRIxWraNH0mfPmI-28" value="" style="curved=1;endArrow=classic;html=1;rounded=0;exitX=1;exitY=0.617;exitDx=0;exitDy=0;exitPerimeter=0;entryX=0;entryY=0.75;entryDx=0;entryDy=0;" edge="1" parent="1" source="78gqtIRIxWraNH0mfPmI-19" target="78gqtIRIxWraNH0mfPmI-22">
          <mxGeometry width="50" height="50" relative="1" as="geometry">
            <mxPoint x="400" y="630" as="sourcePoint" />
            <mxPoint x="450" y="580" as="targetPoint" />
            <Array as="points">
              <mxPoint x="600" y="600" />
              <mxPoint x="630" y="480" />
            </Array>
          </mxGeometry>
        </mxCell>
        <mxCell id="78gqtIRIxWraNH0mfPmI-31" value="https://sft1.example.com&lt;br&gt;https://sft2.example.com" style="edgeLabel;html=1;align=center;verticalAlign=middle;resizable=0;points=[];" vertex="1" connectable="0" parent="1">
          <mxGeometry x="310" y="660" as="geometry">
            <mxPoint x="146" y="16" as="offset" />
          </mxGeometry>
        </mxCell>
        <mxCell id="78gqtIRIxWraNH0mfPmI-32" value="" style="curved=1;endArrow=classic;html=1;rounded=0;exitX=0.31;exitY=0.8;exitDx=0;exitDy=0;exitPerimeter=0;entryX=0;entryY=0.5;entryDx=0;entryDy=0;" edge="1" parent="1" source="78gqtIRIxWraNH0mfPmI-7" target="78gqtIRIxWraNH0mfPmI-33">
          <mxGeometry width="50" height="50" relative="1" as="geometry">
            <mxPoint x="400" y="600" as="sourcePoint" />
            <mxPoint x="450" y="550" as="targetPoint" />
            <Array as="points">
              <mxPoint x="200" y="630" />
            </Array>
          </mxGeometry>
        </mxCell>
        <mxCell id="78gqtIRIxWraNH0mfPmI-34" value="&lt;div&gt;Wire Calling&amp;nbsp;&lt;/div&gt;&lt;div&gt;Load Balancer&lt;/div&gt;" style="rounded=1;whiteSpace=wrap;html=1;" vertex="1" parent="1">
          <mxGeometry x="680" y="580" width="120" height="60" as="geometry" />
        </mxCell>
        <mxCell id="78gqtIRIxWraNH0mfPmI-35" value="" style="curved=1;endArrow=classic;html=1;rounded=0;exitX=1;exitY=0.5;exitDx=0;exitDy=0;entryX=0;entryY=0.5;entryDx=0;entryDy=0;" edge="1" parent="1" source="78gqtIRIxWraNH0mfPmI-33" target="78gqtIRIxWraNH0mfPmI-34">
          <mxGeometry width="50" height="50" relative="1" as="geometry">
            <mxPoint x="400" y="630" as="sourcePoint" />
            <mxPoint x="450" y="580" as="targetPoint" />
            <Array as="points">
              <mxPoint x="620" y="630" />
            </Array>
          </mxGeometry>
        </mxCell>
        <mxCell id="78gqtIRIxWraNH0mfPmI-36" value="Wire Client Devices" style="text;html=1;align=center;verticalAlign=middle;whiteSpace=wrap;rounded=0;" vertex="1" parent="1">
          <mxGeometry x="30" y="210" width="60" height="30" as="geometry" />
        </mxCell>
        <mxCell id="78gqtIRIxWraNH0mfPmI-37" value="&lt;div&gt;Wire Calling&lt;/div&gt;&lt;div&gt;Firewall&lt;/div&gt;" style="rounded=1;whiteSpace=wrap;html=1;" vertex="1" parent="1">
          <mxGeometry x="680" y="690" width="120" height="60" as="geometry" />
        </mxCell>
        <mxCell id="78gqtIRIxWraNH0mfPmI-38" value="" style="curved=1;endArrow=classic;html=1;rounded=0;exitX=1;exitY=0.75;exitDx=0;exitDy=0;entryX=0;entryY=0.25;entryDx=0;entryDy=0;" edge="1" parent="1" source="78gqtIRIxWraNH0mfPmI-33" target="78gqtIRIxWraNH0mfPmI-37">
          <mxGeometry width="50" height="50" relative="1" as="geometry">
            <mxPoint x="400" y="630" as="sourcePoint" />
            <mxPoint x="670" y="720" as="targetPoint" />
            <Array as="points">
              <mxPoint x="590" y="670" />
              <mxPoint x="630" y="700" />
            </Array>
          </mxGeometry>
        </mxCell>
        <mxCell id="78gqtIRIxWraNH0mfPmI-39" value="" style="curved=1;endArrow=classic;html=1;rounded=0;exitX=1;exitY=0.5;exitDx=0;exitDy=0;entryX=0;entryY=0.75;entryDx=0;entryDy=0;" edge="1" parent="1" source="78gqtIRIxWraNH0mfPmI-30" target="78gqtIRIxWraNH0mfPmI-37">
          <mxGeometry width="50" height="50" relative="1" as="geometry">
            <mxPoint x="400" y="630" as="sourcePoint" />
            <mxPoint x="450" y="580" as="targetPoint" />
            <Array as="points">
              <mxPoint x="600" y="740" />
            </Array>
          </mxGeometry>
        </mxCell>
        <mxCell id="78gqtIRIxWraNH0mfPmI-40" value="" style="curved=1;endArrow=classic;html=1;rounded=0;exitX=0.13;exitY=0.77;exitDx=0;exitDy=0;exitPerimeter=0;entryX=0;entryY=0.5;entryDx=0;entryDy=0;" edge="1" parent="1" source="78gqtIRIxWraNH0mfPmI-7" target="78gqtIRIxWraNH0mfPmI-30">
          <mxGeometry width="50" height="50" relative="1" as="geometry">
            <mxPoint x="400" y="630" as="sourcePoint" />
            <mxPoint x="450" y="580" as="targetPoint" />
            <Array as="points">
              <mxPoint x="150" y="540" />
              <mxPoint x="230" y="680" />
            </Array>
          </mxGeometry>
        </mxCell>
      </root>
    </mxGraphModel>
  </diagram>
</mxfile>
